<svg xmlns="http://www.w3.org/2000/svg" version="1.1" xmlns:xlink="http://www.w3.org/1999/xlink" xmlns:svgjs="http://svgjs.dev/svgjs" width="1000" height="290" viewBox="0 0 1000 290"><g transform="matrix(1,0,0,1,-0.606055965297287,-0.41029839495959664)"><svg viewBox="0 0 396 115" data-background-color="#fce44d" preserveAspectRatio="xMidYMid meet" height="290" width="1000" xmlns="http://www.w3.org/2000/svg" xmlns:xlink="http://www.w3.org/1999/xlink"><defs></defs><g id="tight-bounds" transform="matrix(1,0,0,1,0.2399981622577343,0.16270453593224943)"><svg viewBox="0 0 395.52 114.67458965685827" height="114.67458965685827" width="395.52"><g><svg viewBox="0 0 605.5694067704931 175.57499805358358" height="114.67458965685827" width="395.52"><g transform="matrix(1,0,0,1,210.04940677049305,51.279754998481565)"><svg viewBox="0 0 395.52 73.01548805662046" height="73.01548805662046" width="395.52"><g><svg viewBox="0 0 395.52 73.01548805662046" height="73.01548805662046" width="395.52"><g><svg viewBox="0 0 395.52 73.01548805662046" height="73.01548805662046" width="395.52"><g transform="matrix(1,0,0,1,0,0)"><svg width="395.52" viewBox="3.9100000858306885 -30.489999771118164 165.55999755859375 30.559999465942383" height="73.01548805662046" data-palette-color="#374151"><path d="M5.66 0.07Q4.74 0.07 4.32-0.16 3.91-0.39 3.91-0.88L3.91-0.88 3.91-29.52Q3.91-30.49 5.66-30.49L5.66-30.49 7.2-30.49Q8.64-30.49 9.03-29.69L9.03-29.69 17.24-15.45 18.36-12.72 19.48-15.21 27.71-29.69Q28.13-30.49 29.52-30.49L29.52-30.49 30.96-30.49Q32.69-30.49 32.69-29.52L32.69-29.52 32.69-0.88Q32.69 0.07 30.96 0.07L30.96 0.07 30.66 0.07Q29.74 0.07 29.32-0.16 28.91-0.39 28.91-0.88L28.91-0.88 28.91-24.24 28.83-24.05 20.19-9.03Q20.02-8.74 19.8-8.61 19.58-8.47 19.24-8.47L19.24-8.47 17.5-8.47Q16.85-8.47 16.53-9.03L16.53-9.03 7.69-24.49 7.69-0.88Q7.69 0.07 5.96 0.07L5.96 0.07 5.66 0.07ZM38.96 0.07Q37.99 0.07 37.55-0.11 37.11-0.29 37.11-0.66L37.11-0.66Q37.11-0.83 37.23-1.25L37.23-1.25 47.51-29.79Q47.75-30.49 49.24-30.49L49.24-30.49 50.51-30.49Q52-30.49 52.24-29.79L52.24-29.79 62.52-1.22Q62.64-0.95 62.64-0.66L62.64-0.66Q62.64 0.07 60.81 0.07L60.81 0.07 60.45 0.07Q58.93 0.07 58.69-0.61L58.69-0.61 56.15-7.74 43.41-7.74 40.92-0.61Q40.7 0.07 39.18 0.07L39.18 0.07 38.96 0.07ZM44.6-11.04L54.98-11.04 50.44-23.95Q50.24-24.49 50.12-25.17 50-25.85 49.9-26.49L49.9-26.49 49.8-26.49Q49.51-24.85 49.14-23.95L49.14-23.95 44.6-11.04ZM66.06 0.07Q64.99 0.07 64.52-0.1 64.06-0.27 64.06-0.66L64.06-0.66Q64.06-0.95 64.4-1.44L64.4-1.44 74.12-15.84 65.42-28.96Q65.08-29.47 65.08-29.74L65.08-29.74Q65.08-30.49 67.08-30.49L67.08-30.49 67.72-30.49Q69.09-30.49 69.55-29.83L69.55-29.83 76.51-19.36 83.66-29.86Q83.88-30.18 84.39-30.33 84.91-30.49 85.54-30.49L85.54-30.49 85.79-30.49Q86.86-30.49 87.32-30.31 87.79-30.13 87.79-29.74L87.79-29.74Q87.79-29.59 87.68-29.38 87.57-29.17 87.45-28.96L87.45-28.96 78.75-16.06 88.54-1.44Q88.89-0.95 88.89-0.66L88.89-0.66Q88.89-0.29 88.42-0.11 87.96 0.07 86.88 0.07L86.88 0.07 86.18 0.07Q85.44 0.07 85-0.06 84.57-0.2 84.32-0.59L84.32-0.59 76.34-12.5 68.26-0.54Q67.89 0.07 66.38 0.07L66.38 0.07 66.06 0.07ZM95.23 0Q94.55 0 94.23-0.32 93.91-0.63 93.91-1.29L93.91-1.29 93.91-29.08Q93.91-29.76 94.23-30.07 94.55-30.37 95.23-30.37L95.23-30.37 104-30.37Q110.1-30.37 113.76-26.76 117.42-23.14 117.42-15.21L117.42-15.21Q117.42-7.23 113.76-3.61 110.1 0 104 0L104 0 95.23 0ZM97.75-3.3L103.7-3.3Q108.1-3.3 110.78-6.16 113.47-9.03 113.47-15.21L113.47-15.21Q113.47-19.36 112.2-22.01 110.93-24.66 108.73-25.87 106.54-27.08 103.7-27.08L103.7-27.08 97.75-27.08 97.75-3.3ZM125.41 0Q124.72 0 124.4-0.32 124.09-0.63 124.09-1.29L124.09-1.29 124.09-29.08Q124.09-29.76 124.4-30.07 124.72-30.37 125.41-30.37L125.41-30.37 140.54-30.37Q141.01-30.37 141.21-30.08 141.42-29.79 141.42-29.08L141.42-29.08 141.42-28.37Q141.42-27.71 141.21-27.39 141.01-27.08 140.54-27.08L140.54-27.08 127.92-27.08 127.92-17.19 139.25-17.19Q139.71-17.19 139.92-16.87 140.13-16.55 140.13-15.87L140.13-15.87 140.13-15.21Q140.13-14.53 139.92-14.22 139.71-13.92 139.25-13.92L139.25-13.92 127.92-13.92 127.92-3.3 140.59-3.3Q141.05-3.3 141.26-2.99 141.47-2.69 141.47-2L141.47-2 141.47-1.29Q141.47-0.63 141.26-0.32 141.05 0 140.59 0L140.59 0 125.41 0ZM156.31 0.07Q154.8 0.07 154.58-0.61L154.58-0.61 144.64-29.17Q144.49-29.47 144.49-29.74L144.49-29.74Q144.49-30.08 144.97-30.29 145.45-30.49 146.37-30.49L146.37-30.49 146.76-30.49Q148.25-30.49 148.5-29.79L148.5-29.79 156.53-6.62 156.97-4.35 157.09-4.35 157.58-6.67 165.59-29.79Q165.86-30.49 167.35-30.49L167.35-30.49 167.59-30.49Q169.47-30.49 169.47-29.74L169.47-29.74Q169.47-29.49 169.32-29.13L169.32-29.13 159.39-0.61Q159.17 0.07 157.65 0.07L157.65 0.07 156.31 0.07Z" opacity="1" transform="matrix(1,0,0,1,0,0)" fill="#000000" class="undefined-text-0" data-fill-palette-color="primary" id="text-0"></path></svg></g></svg></g></svg></g></svg></g><g><svg viewBox="0 0 175.57499805358358 175.57499805358358" height="175.57499805358358" width="175.57499805358358"><g><svg></svg></g><g id="icon-0"><svg viewBox="0 0 175.57499805358358 175.57499805358358" height="175.57499805358358" width="175.57499805358358"><g><path d="M0 87.787c0-48.484 39.304-87.787 87.787-87.787 48.484 0 87.787 39.304 87.788 87.787 0 48.484-39.304 87.787-87.788 87.788-48.484 0-87.787-39.304-87.787-87.788zM87.787 168.99c44.847 0 81.203-36.356 81.203-81.203 0-44.847-36.356-81.203-81.203-81.202-44.847 0-81.203 36.356-81.202 81.202 0 44.847 36.356 81.203 81.202 81.203z" data-fill-palette-color="accent" fill="#000000" stroke="transparent"></path></g><g transform="matrix(1,0,0,1,44.60229182257083,39.01034061366695)"><svg viewBox="0 0 86.37041440844193 97.55431682624969" height="97.55431682624969" width="86.37041440844193"><g><svg xmlns="http://www.w3.org/2000/svg" data-name="Glyph Icon" viewBox="7.210000038146973 4 49.58000183105469 56" x="0" y="0" height="97.55431682624969" width="86.37041440844193" class="icon-x-0" data-fill-palette-color="accent" id="x-0"><path d="M49.13 20.84l-16-9.26V4L55.7 17.05ZM32 50.52L16 41.26V22.74l16-9.26 16 9.26V41.26ZM30.91 11.58l-16 9.26L8.3 17.05 30.91 4ZM13.77 22.74V41.26L7.21 45.05V19Zm1.1 20.42l16 9.26V60L8.3 47Zm18.22 9.26l16-9.26L55.7 47 33.09 60ZM50.23 41.26V22.74L56.79 19v26.1Z" fill="#000000" data-fill-palette-color="accent"></path></svg></g></svg></g></svg></g></svg></g></svg></g></svg><rect width="395.52" height="114.67458965685827" fill="none" stroke="none" visibility="hidden"></rect></g></svg></g></svg>